<svg width="23" height="16" viewBox="0 0 23 16" fill="none" xmlns="http://www.w3.org/2000/svg">
<path d="M1.15601 7C0.603721 7 0.156006 7.44772 0.156006 8C0.156006 8.55228 0.603721 9 1.15601 9V7ZM21.9921 8.70711C22.3827 8.31658 22.3827 7.68342 21.9921 7.29289L15.6282 0.928932C15.2377 0.538408 14.6045 0.538408 14.214 0.928932C13.8234 1.31946 13.8234 1.95262 14.214 2.34315L19.8708 8L14.214 13.6569C13.8234 14.0474 13.8234 14.6805 14.214 15.0711C14.6045 15.4616 15.2377 15.4616 15.6282 15.0711L21.9921 8.70711ZM1.15601 9H21.285V7H1.15601V9Z" fill="#1E1B1B"/>
</svg>
